<?xml version="1.0" encoding="utf-8"?>
<!-- Generator: Adobe Illustrator 21.0.2, SVG Export Plug-In . SVG Version: 6.00 Build 0)  -->
<svg version="1.1" id="Layer_1" xmlns="http://www.w3.org/2000/svg" xmlns:xlink="http://www.w3.org/1999/xlink" x="0px" y="0px"
	 viewBox="0 0 1024 1024" style="enable-background:new 0 0 1024 1024;" xml:space="preserve">
<style type="text/css">
	.st1{fill:#F7B21B;}
	.st2{fill:#236EB4;}
	.st3{fill:#049949;}
	.st4{fill:#E32628;}
</style>
<g>
	<g class="st0">
		<path class="st1" d="M395.9,928c-7.7,0-15.4-2.9-21.2-8.8L182.9,727.4c-11.7-11.7-11.7-30.7,0-42.4c11.7-11.7,30.7-11.7,42.4,0
			l191.8,191.8c11.7,11.7,11.7,30.7,0,42.4C411.3,925.1,403.6,928,395.9,928z"/>
	</g>
	<g class="st0">
		<path class="st1" d="M396.1,579.7c-7.7,0-15.3-2.9-21.2-8.8l-192-191.5c-11.7-11.7-11.8-30.7-0.1-42.4
			c11.7-11.7,30.7-11.8,42.4-0.1l192,191.5c11.7,11.7,11.8,30.7,0.1,42.4C411.5,576.8,403.8,579.7,396.1,579.7z"/>
	</g>
	<g class="st0">
		<path class="st1" d="M395.9,754c-7.7,0-15.4-2.9-21.2-8.8L183.3,553.8c-11.7-11.7-11.7-30.7,0-42.4c11.7-11.7,30.7-11.7,42.4,0
			l191.4,191.4c11.7,11.7,11.7,30.7,0,42.4C411.3,751,403.6,754,395.9,754z"/>
	</g>
	<g class="st0">
		<path class="st2" d="M619.5,704.4c-7.7,0-15.4-2.9-21.2-8.8c-11.7-11.7-11.7-30.7,0-42.4l374.4-374.4c11.7-11.7,30.7-11.7,42.4,0
			c11.7,11.7,11.7,30.7,0,42.4L640.7,695.6C634.9,701.5,627.2,704.4,619.5,704.4z"/>
	</g>
	<g class="st0">
		<path class="st2" d="M619.5,530.4c-7.7,0-15.4-2.9-21.2-8.8c-11.7-11.7-11.7-30.7,0-42.4L864.5,213l-44.6-44.6L640.8,347.5
			c-11.7,11.7-30.7,11.7-42.4,0c-11.7-11.7-11.7-30.7,0-42.4l200.3-200.3c5.6-5.6,13.3-8.8,21.2-8.8c8,0,15.6,3.2,21.2,8.8l87,87
			c11.7,11.7,11.7,30.7,0,42.4L640.7,521.6C634.9,527.4,627.2,530.4,619.5,530.4z"/>
	</g>
	<g class="st0">
		<path class="st3" d="M396.1,579.7c-7.7,0-15.4-2.9-21.2-8.8c-11.7-11.7-11.7-30.7,0-42.4l223.4-223.4c11.7-11.7,30.7-11.7,42.4,0
			c11.7,11.7,11.7,30.7,0,42.4L417.4,570.9C411.5,576.8,403.8,579.7,396.1,579.7z"/>
	</g>
	<g class="st0">
		<path class="st3" d="M395.9,754c-7.7,0-15.4-2.9-21.2-8.8c-11.7-11.7-11.7-30.7,0-42.4l223.6-223.6c11.7-11.7,30.7-11.7,42.4,0
			c11.7,11.7,11.7,30.7,0,42.4L417.1,745.2C411.3,751,403.6,754,395.9,754z"/>
	</g>
	<g class="st0">
		<path class="st3" d="M395.9,928c-7.7,0-15.4-2.9-21.2-8.8c-11.7-11.7-11.7-30.7,0-42.4l223.6-223.6c11.7-11.7,30.7-11.7,42.4,0
			c11.7,11.7,11.7,30.7,0,42.4L417.1,919.2C411.3,925.1,403.6,928,395.9,928z"/>
	</g>
	<g class="st0">
		<path class="st4" d="M204.1,736.2c-7.7,0-15.4-2.9-21.2-8.8l-174-174c-5.6-5.6-8.8-13.3-8.8-21.2s3.2-15.6,8.8-21.2l174-174
			c11.7-11.7,30.7-11.7,42.4,0c11.7,11.7,11.7,30.7,0,42.4L72.5,532.2L225.3,685c11.7,11.7,11.7,30.7,0,42.4
			C219.5,733.3,211.8,736.2,204.1,736.2z"/>
	</g>
</g>
</svg>
